<svg width="170" height="130" viewBox="0 0 170 130" fill="none" xmlns="http://www.w3.org/2000/svg">
<mask id="path-1-outside-1_109_5" maskUnits="userSpaceOnUse" x="0" y="0" width="170" height="130" fill="black">
<rect fill="white" width="170" height="130"/>
<path d="M87.753 123.313C86.1961 125.572 83.1061 125.56 81.5628 123.29L5.77888 11.8154C3.86454 8.99947 5.69819 4.98839 8.8945 5.00003L161.131 5.55417C164.328 5.56581 166.137 9.59015 164.206 12.3921L87.753 123.313Z"/>
<path d="M97.6169 44.064V52.1811H73.6531V44.064H97.6169ZM76.4594 23.4939V74H67V23.4939H76.4594ZM104.365 23.4939V74H94.9368V23.4939H104.365Z"/>
</mask>
<path d="M87.753 123.313C86.1961 125.572 83.1061 125.56 81.5628 123.29L5.77888 11.8154C3.86454 8.99947 5.69819 4.98839 8.8945 5.00003L161.131 5.55417C164.328 5.56581 166.137 9.59015 164.206 12.3921L87.753 123.313Z" fill="#DF4300"/>
<path d="M97.6169 44.064V52.1811H73.6531V44.064H97.6169ZM76.4594 23.4939V74H67V23.4939H76.4594ZM104.365 23.4939V74H94.9368V23.4939H104.365Z" fill="#FAFF00"/>
<path d="M87.753 123.313L91.8698 126.15L91.8698 126.15L87.753 123.313ZM81.5628 123.29L77.4279 126.101L77.4279 126.101L81.5628 123.29ZM5.77888 11.8154L1.64392 14.6265L1.64392 14.6265L5.77888 11.8154ZM8.8945 5.00003L8.8763 9.99999L8.8945 5.00003ZM161.131 5.55417L161.113 10.5541L161.131 5.55417ZM164.206 12.3921L168.323 15.2296L168.323 15.2296L164.206 12.3921ZM97.6169 44.064H102.617V39.064H97.6169V44.064ZM97.6169 52.1811V57.1811H102.617V52.1811H97.6169ZM73.6531 52.1811H68.6531V57.1811H73.6531V52.1811ZM73.6531 44.064V39.064H68.6531V44.064H73.6531ZM76.4594 23.4939H81.4594V18.4939H76.4594V23.4939ZM76.4594 74V79H81.4594V74H76.4594ZM67 74H62V79H67V74ZM67 23.4939V18.4939H62V23.4939H67ZM104.365 23.4939H109.365V18.4939H104.365V23.4939ZM104.365 74V79H109.365V74H104.365ZM94.9368 74H89.9368V79H94.9368V74ZM94.9368 23.4939V18.4939H89.9368V23.4939H94.9368ZM83.6361 120.475C83.7787 120.269 84.1524 119.998 84.671 120C85.1892 120.002 85.5586 120.275 85.6978 120.479L77.4279 126.101C80.9447 131.275 88.315 131.308 91.8698 126.15L83.6361 120.475ZM85.6978 120.479L9.91384 9.00432L1.64392 14.6265L77.4279 126.101L85.6978 120.479ZM9.91384 9.00432C10.0359 9.18384 10.0016 9.35181 9.96757 9.42619C9.94362 9.47857 9.86959 9.61012 9.67755 9.74597C9.46065 9.89941 9.16693 10.0011 8.8763 9.99999L8.9127 5.8378e-05C4.99585 -0.0141991 2.14903 2.47689 0.872832 5.26856C-0.398483 8.04954 -0.392462 11.631 1.64392 14.6265L9.91384 9.00432ZM8.8763 9.99999L161.113 10.5541L161.149 0.554206L8.9127 5.8378e-05L8.8763 9.99999ZM161.113 10.5541C160.823 10.5531 160.531 10.4494 160.316 10.2955C160.127 10.1594 160.054 10.0286 160.031 9.9772C159.999 9.90518 159.964 9.7362 160.089 9.55452L168.323 15.2296C170.379 12.246 170.405 8.66391 169.152 5.87633C167.894 3.07851 165.065 0.568459 161.149 0.554206L161.113 10.5541ZM160.089 9.55452L83.6361 120.475L91.8698 126.15L168.323 15.2296L160.089 9.55452ZM92.6169 44.064V52.1811H102.617V44.064H92.6169ZM97.6169 47.1811H73.6531V57.1811H97.6169V47.1811ZM78.6531 52.1811V44.064H68.6531V52.1811H78.6531ZM73.6531 49.064H97.6169V39.064H73.6531V49.064ZM71.4594 23.4939V74H81.4594V23.4939H71.4594ZM76.4594 69H67V79H76.4594V69ZM72 74V23.4939H62V74H72ZM67 28.4939H76.4594V18.4939H67V28.4939ZM99.3647 23.4939V74H109.365V23.4939H99.3647ZM104.365 69H94.9368V79H104.365V69ZM99.9368 74V23.4939H89.9368V74H99.9368ZM94.9368 28.4939H104.365V18.4939H94.9368V28.4939Z" fill="#FAFF00" mask="url(#path-1-outside-1_109_5)"/>
</svg>
